<svg width="240" height="48" viewBox="0 0 240 48" fill="none" xmlns="http://www.w3.org/2000/svg">
<path d="M24 4L30.18 16.52L44 18.54L34 28.28L36.36 42.04L24 35.54L11.64 42.04L14 28.28L4 18.54L17.82 16.52L24 4Z" fill="#D2A637"/>
<path d="M72 4L78.18 16.52L92 18.54L82 28.28L84.36 42.04L72 35.54L59.64 42.04L62 28.28L52 18.54L65.82 16.52L72 4Z" fill="#D2A637"/>
<path d="M120 4L126.18 16.52L140 18.54L130 28.28L132.36 42.04L120 35.54L107.64 42.04L110 28.28L100 18.54L113.82 16.52L120 4Z" fill="#D2A637"/>
<path d="M168 4L174.18 16.52L188 18.54L178 28.28L180.36 42.04L168 35.54L155.64 42.04L158 28.28L148 18.54L161.82 16.52L168 4Z" fill="#D2A637"/>
<path d="M216 4L222.18 16.52L236 18.54L226 28.28L228.36 42.04L216 35.54L203.64 42.04L206 28.28L196 18.54L209.82 16.52L216 4Z" fill="#D2A637"/>
</svg>
