<svg width="27" height="26" viewBox="0 0 27 26" fill="none" xmlns="http://www.w3.org/2000/svg">
<path d="M18.1102 22.6564V6.09637C18.1102 5.54737 17.8761 5.02086 17.4594 4.63266C17.0426 4.24446 16.4774 4.02637 15.888 4.02637H11.4436C10.8542 4.02637 10.289 4.24446 9.87223 4.63266C9.45548 5.02086 9.22135 5.54737 9.22135 6.09637V22.6564M4.77691 8.16637H22.5547C23.782 8.16637 24.7769 9.09314 24.7769 10.2364V20.5864C24.7769 21.7296 23.782 22.6564 22.5547 22.6564H4.77691C3.54961 22.6564 2.55469 21.7296 2.55469 20.5864V10.2364C2.55469 9.09314 3.54961 8.16637 4.77691 8.16637Z" stroke="#1E1E1E" stroke-width="2" stroke-linecap="round" stroke-linejoin="round"/>
</svg>
