<svg width="32" height="32" viewBox="0 0 32 32" fill="none" xmlns="http://www.w3.org/2000/svg">
<g clip-path="url(#clip0_274_1109)">
<path d="M29.3346 14.7735V16.0001C29.333 18.8754 28.402 21.673 26.6804 23.9759C24.9589 26.2788 22.539 27.9634 19.7818 28.7787C17.0245 29.5939 14.0776 29.496 11.3806 28.4996C8.68354 27.5032 6.38084 25.6616 4.81592 23.2496C3.25099 20.8375 2.50769 17.9842 2.69687 15.1152C2.88605 12.2462 3.99758 9.51525 5.86568 7.32957C7.73377 5.1439 10.2583 3.62065 13.0629 2.98701C15.8674 2.35336 18.8017 2.64326 21.428 3.81348M29.3346 5.33348L16.0013 18.6801L12.0013 14.6801" stroke="#00563D" stroke-width="4" stroke-linecap="round" stroke-linejoin="round"/>
</g>
<defs>
<clipPath id="clip0_274_1109">
<rect width="32" height="32" fill="white"/>
</clipPath>
</defs>
</svg>
