<svg width="99" height="98" viewBox="0 0 99 98" fill="none" xmlns="http://www.w3.org/2000/svg">
<rect x="1.5" y="1.5" width="96" height="95" rx="13.5" stroke="white" stroke-width="3"/>
<path d="M67.6802 36.2197C66.6587 35.1978 65.4459 34.387 64.1109 33.8339C62.776 33.2808 61.3452 32.9961 59.9002 32.9961C58.4553 32.9961 57.0244 33.2808 55.6895 33.8339C54.3546 34.387 53.1418 35.1978 52.1202 36.2197L50.0002 38.3397L47.8802 36.2197C45.8169 34.1564 43.0183 32.9972 40.1002 32.9972C37.1822 32.9972 34.3836 34.1564 32.3202 36.2197C30.2569 38.2831 29.0977 41.0817 29.0977 43.9997C29.0977 46.9178 30.2569 49.7164 32.3202 51.7797L50.0002 69.4597L67.6802 51.7797C68.7022 50.7582 69.5129 49.5454 70.0661 48.2105C70.6192 46.8755 70.9039 45.4447 70.9039 43.9997C70.9039 42.5548 70.6192 41.124 70.0661 39.789C69.5129 38.4541 68.7022 37.2413 67.6802 36.2197Z" stroke="#FF6464" stroke-width="4" stroke-linecap="round" stroke-linejoin="round"/>
</svg>
