<svg width="99" height="98" viewBox="0 0 99 98" fill="none" xmlns="http://www.w3.org/2000/svg">
<rect x="1.5" y="1.5" width="96" height="95" rx="13.5" stroke="white" stroke-width="3"/>
<path d="M60 65V61C60 58.8783 59.1571 56.8434 57.6569 55.3431C56.1566 53.8429 54.1217 53 52 53H36C33.8783 53 31.8434 53.8429 30.3431 55.3431C28.8429 56.8434 28 58.8783 28 61V65M72 65V61C71.9987 59.2275 71.4087 57.5055 70.3227 56.1046C69.2368 54.7037 67.7163 53.7031 66 53.26M58 29.26C59.7208 29.7006 61.2461 30.7014 62.3353 32.1046C63.4245 33.5078 64.0157 35.2337 64.0157 37.01C64.0157 38.7863 63.4245 40.5122 62.3353 41.9154C61.2461 43.3186 59.7208 44.3194 58 44.76M52 37C52 41.4183 48.4183 45 44 45C39.5817 45 36 41.4183 36 37C36 32.5817 39.5817 29 44 29C48.4183 29 52 32.5817 52 37Z" stroke="white" stroke-width="4" stroke-linecap="round" stroke-linejoin="round"/>
</svg>
