<svg width="858" height="684" viewBox="0 0 858 684" fill="none" xmlns="http://www.w3.org/2000/svg">
<rect x="143.5" y="456.5" width="142" height="113" stroke="black" stroke-opacity="0.4"/>
<rect x="143.5" y="342.5" width="142" height="113" stroke="black" stroke-opacity="0.4"/>
<rect x="143.5" y="228.5" width="142" height="113" stroke="black" stroke-opacity="0.4"/>
<rect x="143.5" y="114.5" width="142" height="113" stroke="black" stroke-opacity="0.4"/>
<rect x="286.5" y="114.5" width="142" height="113" stroke="black" stroke-opacity="0.4"/>
<rect x="429.5" y="114.5" width="142" height="113" stroke="black" stroke-opacity="0.4"/>
<rect x="572.5" y="114.5" width="142" height="113" stroke="black" stroke-opacity="0.4"/>
<rect x="572.5" y="228.5" width="142" height="113" stroke="black" stroke-opacity="0.4"/>
<rect x="572.5" y="342.5" width="142" height="113" stroke="black" stroke-opacity="0.4"/>
<rect x="429.5" y="342.5" width="142" height="113" stroke="black" stroke-opacity="0.6"/>
<rect x="286.5" y="342.5" width="142" height="113" stroke="black" stroke-opacity="0.6"/>
<rect x="286.5" y="228.5" width="142" height="113" stroke="black" stroke-opacity="0.6"/>
<rect x="429.5" y="228.5" width="142" height="113" stroke="black" stroke-opacity="0.6"/>
<rect x="286.5" y="456.5" width="142" height="113" stroke="black" stroke-opacity="0.4"/>
<rect x="429.5" y="456.5" width="142" height="113" stroke="black" stroke-opacity="0.4"/>
<rect x="572.5" y="456.5" width="142" height="113" stroke="black" stroke-opacity="0.4"/>
<rect x="715.5" y="456.5" width="142" height="113" stroke="black" stroke-opacity="0.2"/>
<rect x="715.5" y="342.5" width="142" height="113" stroke="black" stroke-opacity="0.2"/>
<rect x="715.5" y="228.5" width="142" height="113" stroke="black" stroke-opacity="0.2"/>
<rect x="715.5" y="114.5" width="142" height="113" stroke="black" stroke-opacity="0.2"/>
<rect x="715.5" y="0.5" width="142" height="113" stroke="black" stroke-opacity="0.2"/>
<rect x="572.5" y="0.5" width="142" height="113" stroke="black" stroke-opacity="0.2"/>
<rect x="429.5" y="0.5" width="142" height="113" stroke="black" stroke-opacity="0.2"/>
<rect x="286.5" y="0.5" width="142" height="113" stroke="black" stroke-opacity="0.2"/>
<rect x="143.5" y="0.5" width="142" height="113" stroke="black" stroke-opacity="0.2"/>
<rect x="0.5" y="0.5" width="142" height="113" stroke="black" stroke-opacity="0.2"/>
<rect x="0.5" y="114.5" width="142" height="113" stroke="black" stroke-opacity="0.2"/>
<rect x="0.5" y="228.5" width="142" height="113" stroke="black" stroke-opacity="0.2"/>
<rect x="0.5" y="342.5" width="142" height="113" stroke="black" stroke-opacity="0.2"/>
<rect x="0.5" y="456.5" width="142" height="113" stroke="black" stroke-opacity="0.2"/>
<rect x="0.5" y="570.5" width="142" height="113" stroke="black" stroke-opacity="0.2"/>
<rect x="143.5" y="570.5" width="142" height="113" stroke="black" stroke-opacity="0.2"/>
<rect x="286.5" y="570.5" width="142" height="113" stroke="black" stroke-opacity="0.2"/>
<rect x="429.5" y="570.5" width="142" height="113" stroke="black" stroke-opacity="0.2"/>
<rect x="572.5" y="570.5" width="142" height="113" stroke="black" stroke-opacity="0.2"/>
<rect x="715.5" y="570.5" width="142" height="113" stroke="black" stroke-opacity="0.2"/>
</svg>
