<svg width="64" height="64" viewBox="0 0 64 64" fill="none" xmlns="http://www.w3.org/2000/svg">
<rect width="64" height="64" rx="10" fill="#D2A637" fill-opacity="0.8"/>
<path d="M52.9989 42.8402V48.8402C53.0012 49.3972 52.8871 49.9485 52.6639 50.4589C52.4408 50.9692 52.1135 51.4274 51.703 51.8039C51.2926 52.1805 50.808 52.4672 50.2804 52.6456C49.7527 52.8241 49.1936 52.8903 48.6389 52.8402C42.4846 52.1715 36.5729 50.0685 31.3789 46.7002C26.5465 43.6295 22.4496 39.5325 19.3789 34.7002C15.9988 29.4826 13.8954 23.5422 13.2389 17.3602C13.1889 16.8071 13.2546 16.2497 13.4319 15.7234C13.6091 15.1972 13.894 14.7136 14.2684 14.3034C14.6428 13.8933 15.0985 13.5656 15.6065 13.3412C16.1144 13.1169 16.6636 13.0007 17.2189 13.0002H23.2189C24.1895 12.9906 25.1305 13.3344 25.8664 13.9673C26.6024 14.6002 27.083 15.4791 27.2189 16.4402C27.4721 18.3603 27.9418 20.2456 28.6189 22.0602C28.888 22.776 28.9462 23.554 28.7867 24.302C28.6272 25.0499 28.2566 25.7364 27.7189 26.2802L25.1789 28.8202C28.026 33.8273 32.1718 37.9731 37.1789 40.8202L39.7189 38.2802C40.2627 37.7425 40.9492 37.3719 41.6971 37.2124C42.4451 37.0529 43.223 37.1111 43.9389 37.3802C45.7534 38.0573 47.6388 38.5269 49.5589 38.7802C50.5304 38.9173 51.4177 39.4066 52.052 40.1552C52.6862 40.9038 53.0232 41.8593 52.9989 42.8402Z" stroke="black" stroke-opacity="0.6" stroke-width="3" stroke-linecap="round" stroke-linejoin="round"/>
</svg>
