<svg width="64" height="64" viewBox="0 0 64 64" fill="none" xmlns="http://www.w3.org/2000/svg">
<rect width="64" height="64" rx="10" fill="#D2A637" fill-opacity="0.8"/>
<path d="M43 21H43.02M22 12H42C47.5228 12 52 16.4772 52 22V42C52 47.5228 47.5228 52 42 52H22C16.4772 52 12 47.5228 12 42V22C12 16.4772 16.4772 12 22 12ZM40 30.74C40.2468 32.4045 39.9625 34.1044 39.1875 35.598C38.4125 37.0916 37.1863 38.3028 35.6833 39.0593C34.1802 39.8159 32.4769 40.0792 30.8156 39.8119C29.1543 39.5445 27.6195 38.7602 26.4297 37.5703C25.2398 36.3805 24.4555 34.8457 24.1881 33.1844C23.9208 31.5231 24.1841 29.8198 24.9407 28.3167C25.6972 26.8137 26.9084 25.5875 28.402 24.8125C29.8956 24.0375 31.5955 23.7532 33.26 24C34.9578 24.2518 36.5297 25.0429 37.7434 26.2566C38.9571 27.4703 39.7482 29.0422 40 30.74Z" stroke="black" stroke-opacity="0.6" stroke-width="3" stroke-linecap="round" stroke-linejoin="round"/>
</svg>
