<svg width="180" height="70" viewBox="0 0 180 70" fill="none" xmlns="http://www.w3.org/2000/svg">
<path d="M15.7447 2.98047V3.86606H11.7097V23.4852H13.8417C18.9828 23.4852 21.0375 21.4991 22.5599 17.3743H23.5114L22.9792 24.3731H3.375V23.4875H6.00059V3.86845H3.375V2.98286H15.7477L15.7447 2.98047Z" fill="#00563D"/>
<path d="M53.2055 17.5576V3.86552H50.6542V2.97993H56.9729V3.86552H54.5733V17.2807C54.5733 21.8662 52.4026 24.6758 45.0552 24.6758C39.0011 24.6758 34.9661 22.9022 34.9661 17.2497V3.86313H32.4922V2.97754H43.3424V3.86313H40.6782V17.8297C40.6782 21.0069 41.82 23.4822 46.6549 23.4822C50.6126 23.4822 53.2025 21.5583 53.2025 17.5528V17.5576H53.2055Z" fill="#00563D"/>
<path d="M72.7415 13.6173C72.7415 20.2485 75.1025 23.7336 79.9374 23.7336C83.5531 23.7336 86.1044 21.5948 87.6654 17.6825H88.4653L88.1977 24.3447H87.6268C87.4365 23.9461 87.2075 23.7336 86.6753 23.7336C85.4561 23.7336 83.0595 24.6813 79.3278 24.6813C71.561 24.6813 66.6875 21.3513 66.6875 13.8011C66.6875 6.25092 72.0546 2.64648 79.4408 2.64648C82.9435 2.64648 85.1142 3.59414 86.369 3.59414C86.9399 3.59414 87.0916 3.37931 87.2819 2.98306H87.8528L88.1561 9.46149H87.3175C85.8338 5.67087 83.4728 3.59414 79.7411 3.59414C75.2095 3.59414 72.7356 6.22227 72.7356 13.6173H72.7415Z" fill="#00563D"/>
<path d="M110.246 2.98047V3.86606H107.772V23.4852H110.246V24.3708H99.5859V23.4852H102.06V3.86606H99.5859V2.98047H110.246Z" fill="#00563D"/>
<path d="M129.776 24.3727H120.223V23.4871H123.116V3.86801H120.223V2.98242H130.844C140.172 2.98242 145.539 5.70365 145.539 13.3112C145.539 21.9284 138.801 24.3751 129.779 24.3751L129.776 24.3727ZM130.383 23.4871C136.74 23.4871 139.366 20.4914 139.366 13.3708C139.366 5.54611 136.36 3.86563 129.773 3.86563H128.861V23.4847H130.383V23.4871Z" fill="#00563D"/>
<path d="M167.051 17.2519H159.02L156.24 23.4869H159.246V24.3725H152.508V23.4869H154.753L164.31 2.95117H166.442L175.844 23.4869H178.127V24.3725H166.745V23.4869H169.677L167.048 17.2519H167.051ZM159.4 16.3663H166.709L163.171 8.20744L159.4 16.3663Z" fill="#00563D"/>
<path d="M12.5371 41.4718H12.5579L17.4493 31.7637H19.7181V43.4936H18.2314V33.3057H18.1897L12.9058 43.4936H12.1208L6.83696 33.3057H6.79534V43.4936H5.30859V31.7637H7.58034L12.5342 41.4718H12.5371Z" fill="#D2A637"/>
<path d="M35.0505 38.4757C35.0505 37.8073 34.8305 37.3084 34.3904 36.979C33.9503 36.6496 33.311 36.4849 32.4725 36.4849C31.8957 36.4849 31.3575 36.5684 30.8639 36.7331C30.3703 36.9002 29.948 37.1198 29.6061 37.3967L28.8211 36.652C29.2195 36.3321 29.7458 36.0671 30.4 35.8571C31.0542 35.647 31.7916 35.542 32.6182 35.542C33.1416 35.542 33.6292 35.5993 34.0841 35.7162C34.5391 35.8332 34.9375 36.0051 35.2795 36.239C35.6244 36.4706 35.892 36.7642 36.0853 37.1174C36.2786 37.4707 36.3737 37.8861 36.3737 38.3611V41.7579C36.3737 42.0562 36.3886 42.3642 36.4154 42.6864C36.4421 43.0063 36.4838 43.2784 36.5402 43.498H35.2795C35.2379 43.3094 35.2052 43.1065 35.1754 42.8845C35.1457 42.6625 35.1338 42.4477 35.1338 42.2376H35.0922C34.6521 42.758 34.1525 43.1304 33.5965 43.3548C33.0375 43.5816 32.3685 43.6937 31.5835 43.6937C31.2118 43.6937 30.8312 43.6532 30.4387 43.5696C30.0462 43.4861 29.6893 43.35 29.3652 43.1614C29.0411 42.9729 28.7735 42.7294 28.5594 42.431C28.3453 42.1326 28.2383 41.765 28.2383 41.333C28.2383 40.7338 28.4286 40.2612 28.8062 39.9127C29.1838 39.5642 29.6893 39.304 30.3227 39.1321C30.956 38.9602 31.6816 38.8504 32.4993 38.7979C33.317 38.7478 34.1674 38.7239 35.0476 38.7239V38.4781H35.0505V38.4757ZM34.6372 39.6167C34.0604 39.6167 33.4776 39.6358 32.8918 39.674C32.306 39.7122 31.7767 39.7909 31.3039 39.9055C30.8312 40.0225 30.4416 40.1896 30.1383 40.4116C29.835 40.6336 29.6834 40.9248 29.6834 41.29C29.6834 41.5669 29.7488 41.7984 29.8796 41.987C30.0105 42.1756 30.1859 42.326 30.4059 42.4429C30.626 42.5599 30.8698 42.6411 31.1374 42.6912C31.405 42.7413 31.6756 42.7652 31.9522 42.7652C32.4487 42.7652 32.8888 42.696 33.2724 42.5575C33.656 42.4191 33.9801 42.2329 34.2417 41.9942C34.5034 41.7578 34.7026 41.4833 34.8394 41.1754C34.9762 40.8651 35.0446 40.5405 35.0446 40.1967V39.6167H34.6313H34.6372Z" fill="#D2A637"/>
<path d="M46.6887 35.743C46.7155 35.9531 46.7363 36.1846 46.7511 36.4401C46.766 36.6931 46.772 36.9031 46.772 37.0702H46.8136C47.0901 36.6167 47.5361 36.2491 48.1546 35.9674C48.7731 35.6858 49.4273 35.5449 50.1142 35.5449C51.3392 35.5449 52.258 35.8385 52.8706 36.4234C53.4831 37.0082 53.7894 37.7816 53.7894 38.7436V43.4985H52.3859V39.2066C52.3859 38.7985 52.3443 38.4285 52.261 38.0967C52.1778 37.7649 52.038 37.4808 51.8388 37.2445C51.6396 37.0082 51.3719 36.822 51.033 36.6883C50.697 36.557 50.2717 36.4902 49.7633 36.4902C49.3916 36.4902 49.0318 36.5523 48.6809 36.6716C48.3301 36.7933 48.0178 36.9771 47.7413 37.2278C47.4648 37.476 47.2447 37.7911 47.0812 38.1731C46.9177 38.555 46.8344 39.0037 46.8344 39.5241V43.5009H45.4309V37.4546C45.4309 37.2445 45.425 36.9748 45.4101 36.643C45.3952 36.3112 45.3774 36.0128 45.3477 35.7478H46.6887V35.743Z" fill="#D2A637"/>
<path d="M68.9568 38.4757C68.9568 37.8073 68.7367 37.3084 68.2967 36.979C67.8566 36.6496 67.2173 36.4849 66.3788 36.4849C65.8019 36.4849 65.2637 36.5684 64.7701 36.7331C64.2765 36.9002 63.8543 37.1198 63.5123 37.3967L62.7273 36.652C63.1258 36.3321 63.6521 36.0671 64.3063 35.8571C64.9604 35.647 65.6978 35.542 66.5245 35.542C67.0478 35.542 67.5355 35.5993 67.9904 35.7162C68.4453 35.8332 68.8438 36.0051 69.1858 36.239C69.5307 36.4706 69.7983 36.7642 69.9916 37.1174C70.1848 37.4707 70.28 37.8861 70.28 38.3611V41.7579C70.28 42.0562 70.2949 42.3642 70.3216 42.6864C70.3484 43.0063 70.39 43.2784 70.4465 43.498H69.1858C69.1441 43.3094 69.1114 43.1065 69.0817 42.8845C69.0519 42.6625 69.04 42.4477 69.04 42.2376H68.9984C68.5583 42.758 68.0588 43.1304 67.5028 43.3548C66.9437 43.5816 66.2747 43.6937 65.4897 43.6937C65.118 43.6937 64.7374 43.6532 64.3449 43.5696C63.9524 43.4861 63.5956 43.35 63.2715 43.1614C62.9474 42.9729 62.6798 42.7294 62.4657 42.431C62.2516 42.1326 62.1445 41.765 62.1445 41.333C62.1445 40.7338 62.3348 40.2612 62.7125 39.9127C63.0901 39.5642 63.5956 39.304 64.2289 39.1321C64.8623 38.9602 65.5878 38.8504 66.4055 38.7979C67.2232 38.7478 68.0737 38.7239 68.9538 38.7239V38.4781H68.9568V38.4757ZM68.5435 39.6167C67.9666 39.6167 67.3838 39.6358 66.798 39.674C66.2123 39.7122 65.683 39.7909 65.2102 39.9055C64.7374 40.0225 64.3479 40.1896 64.0446 40.4116C63.7413 40.6336 63.5896 40.9248 63.5896 41.29C63.5896 41.5669 63.6551 41.7984 63.7859 41.987C63.9167 42.1756 64.0922 42.326 64.3122 42.4429C64.5322 42.5599 64.7761 42.6411 65.0437 42.6912C65.3113 42.7413 65.5819 42.7652 65.8584 42.7652C66.355 42.7652 66.7951 42.696 67.1786 42.5575C67.5622 42.4191 67.8863 42.2329 68.148 41.9942C68.4097 41.7578 68.6089 41.4833 68.7457 41.1754C68.8825 40.8651 68.9508 40.5405 68.9508 40.1967V39.6167H68.5375H68.5435Z" fill="#D2A637"/>
<path d="M79.8549 45.052C80.2385 45.4506 80.7648 45.7872 81.4338 46.0641C82.0999 46.3386 82.8076 46.477 83.548 46.477C84.2349 46.477 84.8206 46.3983 85.3023 46.2359C85.784 46.076 86.1706 45.8564 86.4679 45.5819C86.7623 45.305 86.9794 44.9827 87.1191 44.6128C87.2559 44.2428 87.3243 43.8489 87.3243 43.4288V41.9703H87.2827C86.911 42.4549 86.3847 42.832 85.7038 43.097C85.0228 43.3619 84.33 43.4956 83.6283 43.4956C82.873 43.4956 82.1861 43.3954 81.5736 43.1972C80.9611 42.9967 80.4377 42.7246 80.0036 42.3761C79.5695 42.0276 79.2335 41.6122 78.9926 41.1253C78.7517 40.6383 78.6328 40.1132 78.6328 39.5498C78.6328 38.9865 78.7517 38.4781 78.9926 37.9935C79.2335 37.5089 79.5695 37.0816 80.0036 36.7188C80.4377 36.3536 80.9611 36.0671 81.5736 35.8571C82.1861 35.647 82.87 35.542 83.6283 35.542C84.33 35.542 85.0169 35.6733 85.6919 35.9382C86.3668 36.2032 86.8961 36.5851 87.2797 37.0816H87.3213V35.7401H88.7248V43.4288C88.7248 43.8489 88.6535 44.2953 88.5078 44.7703C88.3621 45.2453 88.0944 45.6821 87.7019 46.0784C87.3094 46.4746 86.7772 46.8064 86.1022 47.0714C85.4272 47.3364 84.553 47.47 83.4826 47.47C82.5875 47.47 81.7342 47.3316 80.9224 47.0547C80.1106 46.7778 79.4148 46.3983 78.838 45.9113L79.849 45.0496H79.8549V45.052ZM80.1225 39.5164C80.1225 39.9246 80.2058 40.3113 80.3693 40.6765C80.5329 41.0417 80.7707 41.3616 81.083 41.6361C81.3922 41.913 81.7728 42.1302 82.2278 42.2902C82.6827 42.4501 83.1971 42.5312 83.7769 42.5312C84.3151 42.5312 84.8087 42.4596 85.2637 42.3164C85.7186 42.1732 86.1111 41.9679 86.4412 41.7029C86.7712 41.438 87.0299 41.1205 87.2143 40.7505C87.4016 40.3805 87.4938 39.97 87.4938 39.5164C87.4938 39.1082 87.4016 38.7215 87.2143 38.3563C87.0299 37.9911 86.7712 37.6712 86.4412 37.3943C86.1111 37.1198 85.7186 36.8978 85.2637 36.7307C84.8087 36.566 84.3151 36.4825 83.7769 36.4825C83.2001 36.4825 82.6827 36.566 82.2278 36.7307C81.7728 36.8978 81.3922 37.1174 81.083 37.3943C80.7737 37.6712 80.5358 37.9911 80.3693 38.3563C80.2058 38.7215 80.1225 39.1082 80.1225 39.5164Z" fill="#D2A637"/>
<path d="M106.623 39.3848V39.6331C106.623 39.7214 106.617 39.8145 106.602 39.9147H98.5948C98.6097 40.3014 98.7049 40.6666 98.8833 41.008C99.0617 41.3493 99.3085 41.6477 99.6266 41.9031C99.9448 42.1585 100.314 42.3591 100.742 42.5071C101.17 42.6551 101.628 42.7314 102.124 42.7314C102.853 42.7314 103.483 42.5954 104.013 42.3256C104.542 42.0559 104.943 41.7432 105.22 41.3899L106.272 42.0535C105.696 42.6383 105.059 43.0585 104.363 43.3139C103.668 43.5693 102.921 43.6934 102.124 43.6934C101.408 43.6934 100.745 43.5908 100.132 43.3879C99.5196 43.185 98.9933 42.8985 98.5532 42.5357C98.1131 42.1705 97.7652 41.7408 97.5095 41.2443C97.2538 40.7478 97.1289 40.2059 97.1289 39.6211C97.1289 39.0363 97.2538 38.4944 97.5006 37.9979C97.7474 37.5014 98.0923 37.0694 98.5324 36.7065C98.9725 36.3413 99.4899 36.0573 100.082 35.8544C100.673 35.6491 101.313 35.5488 101.999 35.5488C102.755 35.5488 103.424 35.6515 104.001 35.8544C104.577 36.0573 105.059 36.3342 105.446 36.6827C105.829 37.0312 106.124 37.437 106.323 37.9001C106.522 38.3632 106.623 38.8597 106.623 39.392V39.3848ZM105.199 39.0196C105.157 38.2915 104.866 37.6852 104.322 37.2054C103.778 36.7256 103.005 36.4846 101.999 36.4846C101.533 36.4846 101.099 36.5538 100.7 36.6922C100.302 36.8307 99.9507 37.0192 99.6474 37.2556C99.3442 37.4919 99.1033 37.764 98.9249 38.0672C98.7465 38.3703 98.6424 38.6878 98.6156 39.0196H105.199Z" fill="#D2A637"/>
<path d="M117.736 35.9645C118.307 35.6828 118.943 35.542 119.645 35.542C119.906 35.542 120.177 35.5635 120.459 35.6088C120.742 35.6518 121.015 35.7401 121.286 35.8666C121.554 35.9931 121.8 36.1626 122.029 36.3727C122.258 36.5827 122.452 36.8525 122.618 37.1843C122.948 36.6544 123.4 36.2486 123.971 35.9669C124.542 35.6852 125.22 35.5444 126.002 35.5444C127.227 35.5444 128.146 35.838 128.758 36.4228C129.371 37.0076 129.677 37.781 129.677 38.743V43.498H128.274V39.2061C128.274 38.3897 128.083 37.7309 127.706 37.2344C127.328 36.7379 126.683 36.4896 125.776 36.4896C125.267 36.4896 124.836 36.5732 124.485 36.7379C124.135 36.905 123.852 37.1222 123.638 37.3919C123.424 37.6617 123.269 37.9696 123.174 38.311C123.079 38.6523 123.028 39.008 123.028 39.3708V43.4956H121.625V38.9722C121.625 38.5974 121.592 38.2537 121.521 37.9457C121.452 37.6378 121.331 37.3752 121.161 37.1604C120.989 36.9456 120.754 36.7785 120.45 36.6639C120.147 36.5493 119.761 36.4896 119.294 36.4896C118.964 36.4896 118.631 36.5517 118.292 36.6711C117.956 36.7928 117.652 36.9766 117.385 37.2272C117.117 37.4755 116.9 37.7906 116.734 38.1725C116.567 38.5544 116.487 39.0032 116.487 39.5236V43.5004H115.083V37.454C115.083 37.244 115.077 36.9742 115.062 36.6424C115.048 36.3106 115.03 36.0122 115 35.7473H116.341C116.368 35.9573 116.389 36.1889 116.403 36.4443C116.418 36.6973 116.424 36.9074 116.424 37.0745H116.466C116.742 36.6209 117.165 36.2533 117.736 35.9717V35.9645Z" fill="#D2A637"/>
<path d="M147.549 39.3848V39.6331C147.549 39.7214 147.543 39.8145 147.528 39.9147H139.521C139.535 40.3014 139.631 40.6666 139.809 41.008C139.987 41.3493 140.234 41.6477 140.552 41.9031C140.871 42.1585 141.239 42.3591 141.667 42.5071C142.096 42.6551 142.554 42.7314 143.05 42.7314C143.779 42.7314 144.409 42.5954 144.938 42.3256C145.468 42.0559 145.869 41.7432 146.146 41.3899L147.198 42.0535C146.621 42.6383 145.985 43.0585 145.289 43.3139C144.593 43.5693 143.847 43.6934 143.05 43.6934C142.334 43.6934 141.67 43.5908 141.058 43.3879C140.445 43.185 139.919 42.8985 139.479 42.5357C139.039 42.1705 138.691 41.7408 138.435 41.2443C138.18 40.7478 138.055 40.2059 138.055 39.6211C138.055 39.0363 138.18 38.4944 138.426 37.9979C138.673 37.5014 139.018 37.0694 139.458 36.7065C139.898 36.3413 140.416 36.0573 141.007 35.8544C141.599 35.6491 142.238 35.5488 142.925 35.5488C143.681 35.5488 144.35 35.6515 144.926 35.8544C145.503 36.0573 145.985 36.3342 146.372 36.6827C146.755 37.0312 147.049 37.437 147.249 37.9001C147.448 38.3632 147.549 38.8597 147.549 39.392V39.3848ZM146.125 39.0196C146.083 38.2915 145.792 37.6852 145.248 37.2054C144.703 36.7256 143.93 36.4846 142.925 36.4846C142.458 36.4846 142.024 36.5538 141.626 36.6922C141.227 36.8307 140.877 37.0192 140.573 37.2556C140.27 37.4919 140.029 37.764 139.851 38.0672C139.672 38.3703 139.568 38.6878 139.541 39.0196H146.125Z" fill="#D2A637"/>
<path d="M157.267 35.743C157.294 35.9531 157.314 36.1846 157.329 36.4401C157.344 36.6931 157.35 36.9031 157.35 37.0702H157.392C157.668 36.6167 158.114 36.2491 158.733 35.9674C159.351 35.6858 160.005 35.5449 160.692 35.5449C161.917 35.5449 162.836 35.8385 163.449 36.4234C164.061 37.0082 164.368 37.7816 164.368 38.7436V43.4985H162.964V39.2066C162.964 38.7985 162.922 38.4285 162.839 38.0967C162.756 37.7649 162.616 37.4808 162.417 37.2445C162.218 37.0082 161.95 36.822 161.611 36.6883C161.275 36.557 160.85 36.4902 160.341 36.4902C159.97 36.4902 159.61 36.5523 159.259 36.6716C158.908 36.7933 158.596 36.9771 158.319 37.2278C158.043 37.476 157.823 37.7911 157.659 38.1731C157.496 38.555 157.413 39.0037 157.413 39.5241V43.5009H156.009V37.4546C156.009 37.2445 156.003 36.9748 155.988 36.643C155.973 36.3112 155.956 36.0128 155.926 35.7478H157.267V35.743Z" fill="#D2A637"/>
<path d="M177.8 36.6825H175.077V41.2059C175.077 41.4924 175.109 41.7311 175.181 41.9173C175.252 42.1034 175.35 42.2514 175.481 42.3565C175.612 42.4615 175.766 42.5331 175.945 42.5713C176.123 42.6095 176.316 42.6286 176.522 42.6286C176.715 42.6286 176.917 42.6071 177.131 42.5618C177.345 42.5164 177.547 42.4567 177.741 42.378L177.803 43.3566C177.556 43.433 177.298 43.4927 177.03 43.5309C176.762 43.5691 176.468 43.5882 176.153 43.5882C175.891 43.5882 175.618 43.5619 175.326 43.5046C175.038 43.4497 174.77 43.3447 174.52 43.1895C174.274 43.0344 174.068 42.8243 173.911 42.5594C173.753 42.2944 173.673 41.9459 173.673 41.5162V36.6777H171.672V35.7324H173.673V33.5459H175.077V35.7324H177.8V36.6825Z" fill="#D2A637"/>
<path d="M16.3936 53.7644C15.8851 53.3348 15.2785 53.0006 14.5768 52.7619C13.875 52.5256 13.0692 52.4062 12.1623 52.4062C11.2554 52.4062 10.3842 52.5447 9.63486 52.8192C8.88554 53.0961 8.24922 53.4684 7.72588 53.9363C7.20255 54.4042 6.80113 54.9484 6.51865 55.5666C6.23617 56.1849 6.09641 56.8342 6.09641 57.5192C6.09641 58.2043 6.23617 58.8536 6.51865 59.4718C6.80113 60.0901 7.20255 60.6296 7.72588 61.0927C8.24922 61.5557 8.88554 61.9257 9.63486 62.2002C10.3842 62.4771 11.2257 62.6132 12.1623 62.6132C12.989 62.6132 13.7442 62.5416 14.4311 62.3984C15.1209 62.2551 15.677 62.0713 16.1022 61.8517V58.2903H12.6975V57.2304H17.5889V62.5296C16.792 62.9163 15.9297 63.2052 15.0079 63.3938C14.0862 63.5823 13.1287 63.6754 12.1385 63.6754C11.0383 63.6754 10.0184 63.5203 9.08476 63.2123C8.14812 62.902 7.34528 62.4747 6.67029 61.9281C5.99531 61.3815 5.46901 60.7322 5.09137 59.9827C4.71374 59.2331 4.52344 58.4096 4.52344 57.5145C4.52344 56.6193 4.71671 55.7958 5.10029 55.0463C5.48387 54.2967 6.0191 53.6475 6.70003 53.1008C7.38096 52.5542 8.18677 52.1269 9.1145 51.8166C10.0422 51.5063 11.0502 51.3535 12.1385 51.3535C13.3071 51.3535 14.327 51.4944 15.1923 51.7736C16.0576 52.0529 16.801 52.4444 17.4224 52.9433L16.3906 53.7716V53.7644H16.3936Z" fill="#D2A637"/>
<path d="M26.7343 56.5142C26.7195 56.1824 26.7016 55.884 26.6719 55.619H28.0129C28.0397 55.8291 28.0605 56.0606 28.0754 56.316C28.0902 56.5691 28.0962 56.7791 28.0962 56.9462H28.1378C28.4143 56.4927 28.8247 56.1251 29.3748 55.8434C29.9249 55.5617 30.5434 55.4209 31.2332 55.4209C31.4116 55.4209 31.5752 55.4257 31.7179 55.4376C31.8606 55.4495 32.0093 55.471 32.1609 55.5044L31.9766 56.581C31.8933 56.5595 31.7565 56.538 31.5633 56.5142C31.37 56.4927 31.1767 56.4807 30.9864 56.4807C30.6147 56.4807 30.2579 56.5356 29.913 56.6455C29.568 56.7553 29.2707 56.9295 29.015 57.1658C28.7593 57.4021 28.5541 57.7053 28.3965 58.0753C28.2389 58.4453 28.1586 58.8869 28.1586 59.4049V63.3721H26.7551V57.3258C26.7551 57.1157 26.7492 56.846 26.7343 56.5142Z" fill="#D2A637"/>
<path d="M48.8558 59.4981C48.8558 60.0829 48.7279 60.6248 48.4752 61.1213C48.2224 61.6178 47.8656 62.0498 47.4107 62.4127C46.9557 62.7755 46.4116 63.0619 45.7812 63.2648C45.1478 63.4701 44.455 63.5704 43.6968 63.5704C42.9385 63.5704 42.2665 63.4677 41.6332 63.2648C40.9998 63.0619 40.4557 62.7755 40.0037 62.4127C39.5517 62.0498 39.1949 61.6178 38.9392 61.1213C38.6835 60.6248 38.5586 60.0829 38.5586 59.4981C38.5586 58.9132 38.6865 58.3714 38.9392 57.8749C39.1949 57.3784 39.5488 56.9463 40.0037 56.5835C40.4587 56.2207 41.0028 55.9342 41.6332 55.7313C42.2636 55.5284 42.9534 55.4258 43.6968 55.4258C44.4401 55.4258 45.1478 55.5284 45.7812 55.7313C46.4145 55.9342 46.9587 56.2207 47.4107 56.5835C47.8626 56.9463 48.2194 57.3784 48.4752 57.8749C48.7309 58.3714 48.8558 58.9132 48.8558 59.4981ZM47.369 59.4981C47.369 59.066 47.2828 58.6602 47.1103 58.2807C46.9379 57.9011 46.694 57.5693 46.3789 57.2877C46.0637 57.006 45.6771 56.7816 45.2222 56.6169C44.7672 56.4522 44.2588 56.3687 43.6938 56.3687C43.1288 56.3687 42.6233 56.4522 42.1773 56.6169C41.7313 56.784 41.3477 57.006 41.0325 57.2877C40.7173 57.5693 40.4735 57.9011 40.3011 58.2807C40.1286 58.6626 40.0424 59.0684 40.0424 59.4981C40.0424 59.9277 40.1286 60.3335 40.3011 60.7155C40.4735 61.095 40.7173 61.4268 41.0325 61.7085C41.3477 61.9901 41.7313 62.2121 42.1773 62.3721C42.6233 62.532 43.1288 62.6132 43.6938 62.6132C44.2588 62.6132 44.7672 62.5344 45.2222 62.3721C45.6771 62.2121 46.0607 61.9925 46.3789 61.7085C46.694 61.4268 46.9379 61.095 47.1103 60.7155C47.2828 60.3335 47.369 59.9277 47.369 59.4981Z" fill="#D2A637"/>
<path d="M64.3321 63.377C64.3053 63.167 64.2845 62.9354 64.2696 62.68C64.2548 62.427 64.2488 62.2169 64.2488 62.0498H64.2072C63.9307 62.5034 63.4846 62.871 62.8662 63.1526C62.2477 63.4343 61.5935 63.5751 60.9066 63.5751C59.6816 63.5751 58.7627 63.2839 58.1532 62.6967C57.5406 62.1119 57.2344 61.3385 57.2344 60.3765V55.6215H58.6379V59.9134C58.6379 60.3216 58.6795 60.6916 58.7627 61.0234C58.846 61.3552 58.9858 61.6393 59.185 61.8756C59.3842 62.1143 59.6518 62.2981 59.9908 62.4318C60.3268 62.563 60.752 62.6299 61.2605 62.6299C61.6322 62.6299 61.9919 62.5702 62.3428 62.4485C62.6937 62.3267 63.0059 62.1429 63.2824 61.8923C63.559 61.644 63.776 61.3289 63.9426 60.947C64.1061 60.5675 64.1894 60.1163 64.1894 59.596V55.6191H65.5928V61.6655C65.5928 61.8756 65.5988 62.1453 65.6137 62.4771C65.6285 62.8089 65.6493 63.1073 65.6761 63.3722H64.3351V63.377H64.3321Z" fill="#D2A637"/>
<path d="M76.1613 67.3538H74.7578V55.6239H76.1613V56.9654H76.2237C76.6222 56.457 77.1544 56.0727 77.8235 55.8149C78.4895 55.5547 79.1675 55.4258 79.8573 55.4258C80.6126 55.4258 81.2995 55.5308 81.912 55.7409C82.5246 55.9509 83.0479 56.2374 83.479 56.6026C83.9132 56.9678 84.2492 57.3975 84.49 57.894C84.7309 58.3905 84.8498 58.9276 84.8498 59.5005C84.8498 60.0733 84.7309 60.6104 84.49 61.1069C84.2492 61.6034 83.9132 62.0355 83.479 62.3983C83.0449 62.7635 82.5216 63.05 81.912 63.26C81.2995 63.4701 80.6156 63.5751 79.8573 63.5751C79.1675 63.5751 78.4925 63.4462 77.8235 63.186C77.1544 62.9259 76.6222 62.5535 76.2237 62.0689H76.1613V67.3538ZM83.3631 59.4981C83.3631 59.066 83.2798 58.6602 83.1163 58.2807C82.9498 57.9011 82.7149 57.5693 82.4026 57.2877C82.0934 57.006 81.7128 56.7816 81.2578 56.6169C80.8029 56.4522 80.2885 56.3687 79.7116 56.3687C79.1734 56.3687 78.6798 56.4498 78.2249 56.6098C77.77 56.7697 77.3775 56.9917 77.0474 57.2733C76.7173 57.555 76.4586 57.8868 76.2743 58.2664C76.0899 58.6483 75.9948 59.0589 75.9948 59.5005C75.9948 59.9421 76.087 60.3526 76.2743 60.7346C76.4616 61.1141 76.7173 61.4435 77.0474 61.7204C77.3775 61.9973 77.77 62.2145 78.2249 62.3745C78.6798 62.5344 79.1734 62.6156 79.7116 62.6156C80.2885 62.6156 80.8059 62.5368 81.2578 62.3745C81.7128 62.2145 82.0934 61.9949 82.4026 61.7109C82.7119 61.4292 82.9498 61.0974 83.1163 60.7178C83.2798 60.3359 83.3631 59.9301 83.3631 59.5005V59.4981Z" fill="#D2A637"/>
<path d="M177.804 57.9395H93.375V60.2549H177.804V57.9395Z" fill="#D2A637"/>
</svg>
