<svg width="265" height="99" viewBox="0 0 265 99" fill="none" xmlns="http://www.w3.org/2000/svg">
<path d="M21.4582 11.6641V12.8558H15.5556V39.2573H18.6744C26.1951 39.2573 29.2008 36.5847 31.4278 31.0339H32.8198L32.0412 40.4522H3.36328V39.2605H7.20411V12.859H3.36328V11.6673H21.4626L21.4582 11.6641Z" fill="white"/>
<path d="M76.2652 31.2806V12.8551H72.5331V11.6634H81.7763V12.8551H78.2661V30.908C78.2661 37.0787 75.0907 40.8595 64.3425 40.8595C55.4864 40.8595 49.5838 38.4728 49.5838 30.8662V12.8519H45.9648V11.6602H61.8371V12.8519H57.9397V31.6468C57.9397 35.9223 59.61 39.2534 66.6827 39.2534C72.4722 39.2534 76.2608 36.6643 76.2608 31.2742V31.2806H76.2652Z" fill="white"/>
<path d="M104.825 25.9793C104.825 34.9029 108.279 39.5928 115.351 39.5928C120.641 39.5928 124.373 36.7147 126.656 31.4498H127.826L127.435 40.4152H126.6C126.321 39.8787 125.986 39.5928 125.208 39.5928C123.424 39.5928 119.918 40.8681 114.46 40.8681C103.098 40.8681 95.9688 36.387 95.9688 26.2267C95.9688 16.0663 103.82 11.2158 114.625 11.2158C119.749 11.2158 122.924 12.4911 124.76 12.4911C125.595 12.4911 125.817 12.202 126.095 11.6687H126.93L127.374 20.3868H126.147C123.977 15.2857 120.523 12.4911 115.064 12.4911C108.435 12.4911 104.816 16.0278 104.816 25.9793H104.825Z" fill="white"/>
<path d="M159.695 11.6641V12.8558H156.076V39.2573H159.695V40.449H144.102V39.2573H147.721V12.8558H144.102V11.6641H159.695Z" fill="white"/>
<path d="M188.273 40.452H174.297V39.2602H178.529V12.8587H174.297V11.667H189.834C203.479 11.667 211.331 15.329 211.331 25.5664C211.331 37.1626 201.474 40.4552 188.277 40.4552L188.273 40.452ZM189.16 39.2602C198.46 39.2602 202.301 35.2288 202.301 25.6467C202.301 15.1169 197.903 12.8555 188.268 12.8555H186.933V39.257H189.16V39.2602Z" fill="white"/>
<path d="M242.79 30.8686H231.042L226.975 39.259H231.372V40.4507H221.516V39.259H224.8L238.78 11.624H241.899L255.652 39.259H258.993V40.4507H242.342V39.259H246.631L242.786 30.8686H242.79ZM231.598 29.6769H242.29L237.114 18.6974L231.598 29.6769Z" fill="white"/>
<path d="M16.7578 63.4597H16.7883L23.9436 50.3955H27.2625V66.1805H25.0876V52.4706H25.0267L17.2972 66.1805H16.1489L8.41936 52.4706H8.35847V66.1805H6.18359V50.3955H9.5068L16.7535 63.4597H16.7578Z" fill="#D2A637"/>
<path d="M49.7036 59.4313C49.7036 58.5318 49.3817 57.8605 48.7379 57.4172C48.0941 56.9739 47.1589 56.7522 45.9323 56.7522C45.0885 56.7522 44.3012 56.8647 43.5791 57.0863C42.8571 57.3112 42.2394 57.6067 41.7392 57.9793L40.5908 56.9771C41.1737 56.5467 41.9436 56.1901 42.9005 55.9074C43.8575 55.6247 44.9362 55.4834 46.1455 55.4834C46.911 55.4834 47.6244 55.5605 48.2899 55.7179C48.9554 55.8753 49.5383 56.1066 50.0385 56.4214C50.5431 56.733 50.9345 57.1281 51.2173 57.6035C51.5 58.0789 51.6392 58.6378 51.6392 59.2771V63.8481C51.6392 64.2496 51.6609 64.664 51.7001 65.0977C51.7392 65.5281 51.8001 65.8943 51.8828 66.1898H50.0385C49.9776 65.9361 49.9297 65.663 49.8862 65.3643C49.8427 65.0655 49.8253 64.7764 49.8253 64.4938H49.7645C49.1207 65.194 48.3899 65.6951 47.5765 65.9971C46.7588 66.3023 45.7801 66.4532 44.6317 66.4532C44.088 66.4532 43.5313 66.3986 42.9571 66.2862C42.3829 66.1738 41.861 65.9907 41.3868 65.7369C40.9127 65.4831 40.5212 65.1555 40.2081 64.754C39.8949 64.3524 39.7383 63.8577 39.7383 63.2763C39.7383 62.47 40.0167 61.834 40.5691 61.365C41.1215 60.896 41.861 60.5459 42.7875 60.3146C43.7139 60.0833 44.7753 59.9356 45.9715 59.8649C47.1677 59.7974 48.4117 59.7653 49.6992 59.7653V59.4345H49.7036V59.4313ZM49.0989 60.9667C48.2551 60.9667 47.4025 60.9924 46.5456 61.0438C45.6887 61.0952 44.9145 61.2012 44.2229 61.3554C43.5313 61.5128 42.9614 61.7376 42.5178 62.0364C42.0741 62.3351 41.8523 62.727 41.8523 63.2185C41.8523 63.5911 41.9479 63.9027 42.1393 64.1565C42.3307 64.4102 42.5874 64.6126 42.9092 64.77C43.2311 64.9274 43.5878 65.0366 43.9793 65.1041C44.3708 65.1715 44.7666 65.2037 45.1711 65.2037C45.8975 65.2037 46.5413 65.1105 47.1024 64.9242C47.6635 64.7379 48.1376 64.4873 48.5204 64.1661C48.9032 63.8481 49.1946 63.4787 49.3947 63.0643C49.5948 62.6467 49.6949 62.2098 49.6949 61.7473V60.9667H49.0902H49.0989Z" fill="#D2A637"/>
<path d="M66.7156 55.7539C66.7548 56.0366 66.7852 56.3482 66.807 56.6919C66.8287 57.0324 66.8374 57.3151 66.8374 57.5399H66.8983C67.3029 56.9296 67.9553 56.4349 68.8601 56.0559C69.7648 55.6768 70.7218 55.4873 71.7266 55.4873C73.5186 55.4873 74.8627 55.8824 75.7588 56.6694C76.6548 57.4564 77.1028 58.4972 77.1028 59.7917V66.1905H75.0498V60.4149C75.0498 59.8656 74.9889 59.3677 74.8671 58.9212C74.7453 58.4747 74.5408 58.0924 74.2494 57.7744C73.958 57.4564 73.5665 57.2059 73.0706 57.026C72.5791 56.8493 71.9571 56.7594 71.2133 56.7594C70.6696 56.7594 70.1432 56.8429 69.63 57.0035C69.1167 57.1673 68.66 57.4147 68.2555 57.7519C67.8509 58.086 67.529 58.51 67.2898 59.024C67.0506 59.5379 66.9288 60.1419 66.9288 60.8421V66.1937H64.8757V58.0571C64.8757 57.7744 64.867 57.4114 64.8453 56.9649C64.8235 56.5184 64.7974 56.1169 64.7539 55.7603H66.7156V55.7539Z" fill="#D2A637"/>
<path d="M99.3012 59.4313C99.3012 58.5318 98.9793 57.8605 98.3356 57.4172C97.6918 56.9739 96.7566 56.7522 95.53 56.7522C94.6861 56.7522 93.8988 56.8647 93.1768 57.0863C92.4547 57.3112 91.837 57.6067 91.3368 57.9793L90.1885 56.9771C90.7714 56.5467 91.5413 56.1901 92.4982 55.9074C93.4552 55.6247 94.5339 55.4834 95.7431 55.4834C96.5087 55.4834 97.222 55.5605 97.8875 55.7179C98.5531 55.8753 99.1359 56.1066 99.6362 56.4214C100.141 56.733 100.532 57.1281 100.815 57.6035C101.098 58.0789 101.237 58.6378 101.237 59.2771V63.8481C101.237 64.2496 101.259 64.664 101.298 65.0977C101.337 65.5281 101.398 65.8943 101.48 66.1898H99.6362C99.5753 65.9361 99.5274 65.663 99.4839 65.3643C99.4404 65.0655 99.423 64.7764 99.423 64.4938H99.3621C98.7184 65.194 97.9876 65.6951 97.1742 65.9971C96.3564 66.3023 95.3777 66.4532 94.2294 66.4532C93.6857 66.4532 93.1289 66.3986 92.5548 66.2862C91.9806 66.1738 91.4586 65.9907 90.9845 65.7369C90.5104 65.4831 90.1189 65.1555 89.8057 64.754C89.4925 64.3524 89.3359 63.8577 89.3359 63.2763C89.3359 62.47 89.6143 61.834 90.1667 61.365C90.7192 60.896 91.4586 60.5459 92.3851 60.3146C93.3116 60.0833 94.373 59.9356 95.5691 59.8649C96.7653 59.7974 98.0093 59.7653 99.2969 59.7653V59.4345H99.3012V59.4313ZM98.6966 60.9667C97.8528 60.9667 97.0002 60.9924 96.1433 61.0438C95.2864 61.0952 94.5121 61.2012 93.8205 61.3554C93.1289 61.5128 92.5591 61.7376 92.1154 62.0364C91.6718 62.3351 91.4499 62.727 91.4499 63.2185C91.4499 63.5911 91.5456 63.9027 91.737 64.1565C91.9284 64.4102 92.185 64.6126 92.5069 64.77C92.8288 64.9274 93.1855 65.0366 93.5769 65.1041C93.9684 65.1715 94.3643 65.2037 94.7688 65.2037C95.4952 65.2037 96.139 65.1105 96.7001 64.9242C97.2612 64.7379 97.7353 64.4873 98.1181 64.1661C98.5009 63.8481 98.7923 63.4787 98.9924 63.0643C99.1925 62.6467 99.2925 62.2098 99.2925 61.7473V60.9667H98.6879H98.6966Z" fill="#D2A637"/>
<path d="M115.225 68.281C115.786 68.8174 116.556 69.2704 117.535 69.643C118.509 70.0124 119.545 70.1987 120.628 70.1987C121.632 70.1987 122.489 70.0927 123.194 69.8743C123.899 69.6591 124.464 69.3635 124.899 68.9941C125.33 68.6215 125.647 68.1878 125.852 67.6899C126.052 67.192 126.152 66.662 126.152 66.0967V64.134H126.091C125.547 64.7861 124.777 65.2936 123.781 65.6502C122.785 66.0067 121.772 66.1866 120.745 66.1866C119.64 66.1866 118.635 66.0517 117.739 65.7851C116.843 65.5153 116.078 65.1491 115.443 64.6801C114.808 64.2111 114.316 63.6522 113.964 62.9969C113.611 62.3416 113.438 61.6349 113.438 60.8768C113.438 60.1187 113.611 59.4345 113.964 58.7824C114.316 58.1303 114.808 57.5553 115.443 57.067C116.078 56.5756 116.843 56.1901 117.739 55.9074C118.635 55.6247 119.636 55.4834 120.745 55.4834C121.772 55.4834 122.776 55.6601 123.764 56.0166C124.751 56.3732 125.525 56.8872 126.087 57.5553H126.147V55.75H128.201V66.0967C128.201 66.662 128.096 67.2627 127.883 67.902C127.67 68.5412 127.278 69.129 126.704 69.6623C126.13 70.1955 125.351 70.642 124.364 70.9986C123.377 71.3551 122.098 71.535 120.532 71.535C119.223 71.535 117.974 71.3487 116.787 70.9761C115.599 70.6035 114.581 70.0927 113.738 69.4374L115.217 68.2778H115.225V68.281ZM115.617 60.8318C115.617 61.3811 115.739 61.9015 115.978 62.393C116.217 62.8844 116.565 63.3149 117.022 63.6843C117.474 64.0569 118.031 64.3492 118.696 64.5644C119.362 64.7797 120.114 64.8889 120.963 64.8889C121.75 64.8889 122.472 64.7925 123.137 64.5998C123.803 64.407 124.377 64.1308 124.86 63.7742C125.343 63.4177 125.721 62.9904 125.991 62.4925C126.265 61.9946 126.4 61.4421 126.4 60.8318C126.4 60.2825 126.265 59.7621 125.991 59.2706C125.721 58.7792 125.343 58.3487 124.86 57.9761C124.377 57.6067 123.803 57.308 123.137 57.0831C122.472 56.8615 121.75 56.749 120.963 56.749C120.119 56.749 119.362 56.8615 118.696 57.0831C118.031 57.308 117.474 57.6035 117.022 57.9761C116.569 58.3487 116.221 58.7792 115.978 59.2706C115.739 59.7621 115.617 60.2825 115.617 60.8318Z" fill="#D2A637"/>
<path d="M154.385 60.6562V60.9903C154.385 61.1092 154.376 61.2344 154.354 61.3693H142.641C142.662 61.8897 142.801 62.3812 143.062 62.8406C143.323 63.2999 143.684 63.7014 144.15 64.0451C144.615 64.3889 145.155 64.6587 145.781 64.8578C146.407 65.057 147.077 65.1598 147.804 65.1598C148.869 65.1598 149.792 64.9767 150.566 64.6137C151.34 64.2507 151.927 63.8299 152.332 63.3545L153.872 64.2475C153.028 65.0345 152.097 65.5999 151.079 65.9436C150.061 66.2873 148.969 66.4543 147.804 66.4543C146.755 66.4543 145.785 66.3162 144.889 66.0432C143.993 65.7701 143.223 65.3847 142.58 64.8964C141.936 64.4049 141.427 63.8267 141.053 63.1586C140.679 62.4904 140.496 61.7612 140.496 60.9742C140.496 60.1872 140.679 59.4581 141.04 58.7899C141.401 58.1218 141.905 57.5403 142.549 57.0521C143.193 56.5606 143.95 56.1783 144.815 55.9053C145.681 55.6291 146.616 55.4941 147.621 55.4941C148.726 55.4941 149.705 55.6323 150.548 55.9053C151.392 56.1783 152.097 56.551 152.662 57.02C153.223 57.4889 153.654 58.035 153.946 58.6582C154.237 59.2814 154.385 59.9495 154.385 60.6659V60.6562ZM152.301 60.1648C152.24 59.185 151.814 58.3691 151.018 57.7234C150.222 57.0778 149.091 56.7533 147.621 56.7533C146.938 56.7533 146.303 56.8465 145.72 57.0328C145.137 57.2191 144.624 57.4729 144.18 57.7909C143.737 58.1089 143.384 58.4751 143.123 58.8831C142.862 59.291 142.71 59.7183 142.671 60.1648H152.301Z" fill="#D2A637"/>
<path d="M170.654 56.052C171.489 55.6729 172.42 55.4834 173.447 55.4834C173.829 55.4834 174.225 55.5123 174.638 55.5733C175.052 55.6312 175.452 55.75 175.848 55.9203C176.239 56.0905 176.6 56.3186 176.935 56.6013C177.27 56.8839 177.553 57.2469 177.796 57.6934C178.279 56.9803 178.94 56.4342 179.776 56.0552C180.611 55.6761 181.602 55.4866 182.746 55.4866C184.539 55.4866 185.883 55.8817 186.779 56.6687C187.675 57.4557 188.123 58.4965 188.123 59.791V66.1898H186.07V60.4142C186.07 59.3156 185.791 58.429 185.239 57.7609C184.686 57.0927 183.742 56.7587 182.416 56.7587C181.672 56.7587 181.041 56.8711 180.528 57.0927C180.015 57.3176 179.602 57.6099 179.288 57.9729C178.975 58.3359 178.749 58.7503 178.61 59.2096C178.471 59.669 178.397 60.1476 178.397 60.6358V66.1866H176.344V60.0994C176.344 59.5951 176.296 59.1325 176.191 58.7181C176.091 58.3038 175.913 57.9504 175.665 57.6613C175.413 57.3722 175.069 57.1473 174.625 56.9932C174.182 56.839 173.616 56.7587 172.933 56.7587C172.451 56.7587 171.963 56.8422 171.468 57.0028C170.976 57.1666 170.532 57.414 170.141 57.7512C169.749 58.0853 169.432 58.5093 169.188 59.0233C168.945 59.5373 168.827 60.1412 168.827 60.8414V66.193H166.774V58.0564C166.774 57.7737 166.765 57.4107 166.744 56.9642C166.722 56.5177 166.696 56.1162 166.652 55.7597H168.614C168.653 56.0423 168.684 56.3539 168.705 56.6976C168.727 57.0381 168.736 57.3208 168.736 57.5457H168.797C169.201 56.9353 169.819 56.4406 170.654 56.0616V56.052Z" fill="#D2A637"/>
<path d="M214.248 60.6562V60.9903C214.248 61.1092 214.239 61.2344 214.218 61.3693H202.504C202.526 61.8897 202.665 62.3812 202.926 62.8406C203.187 63.2999 203.548 63.7014 204.013 64.0451C204.479 64.3889 205.018 64.6587 205.644 64.8578C206.271 65.057 206.941 65.1598 207.667 65.1598C208.733 65.1598 209.655 64.9767 210.429 64.6137C211.203 64.2507 211.79 63.8299 212.195 63.3545L213.735 64.2475C212.891 65.0345 211.96 65.5999 210.942 65.9436C209.924 66.2873 208.833 66.4543 207.667 66.4543C206.619 66.4543 205.649 66.3162 204.753 66.0432C203.857 65.7701 203.087 65.3847 202.443 64.8964C201.799 64.4049 201.29 63.8267 200.916 63.1586C200.542 62.4904 200.359 61.7612 200.359 60.9742C200.359 60.1872 200.542 59.4581 200.903 58.7899C201.264 58.1218 201.769 57.5403 202.412 57.0521C203.056 56.5606 203.813 56.1783 204.679 55.9053C205.544 55.6291 206.479 55.4941 207.484 55.4941C208.589 55.4941 209.568 55.6323 210.412 55.9053C211.255 56.1783 211.96 56.551 212.526 57.02C213.087 57.4889 213.517 58.035 213.809 58.6582C214.1 59.2814 214.248 59.9495 214.248 60.6659V60.6562ZM212.165 60.1648C212.104 59.185 211.677 58.3691 210.881 57.7234C210.085 57.0778 208.954 56.7533 207.484 56.7533C206.801 56.7533 206.166 56.8465 205.583 57.0328C205.001 57.2191 204.487 57.4729 204.044 57.7909C203.6 58.1089 203.248 58.4751 202.987 58.8831C202.726 59.291 202.573 59.7183 202.534 60.1648H212.165Z" fill="#D2A637"/>
<path d="M228.477 55.7539C228.517 56.0366 228.547 56.3482 228.569 56.6919C228.59 57.0324 228.599 57.3151 228.599 57.5399H228.66C229.065 56.9296 229.717 56.4349 230.622 56.0559C231.527 55.6768 232.483 55.4873 233.488 55.4873C235.28 55.4873 236.624 55.8824 237.52 56.6694C238.417 57.4564 238.865 58.4972 238.865 59.7917V66.1905H236.811V60.4149C236.811 59.8656 236.751 59.3677 236.629 58.9212C236.507 58.4747 236.303 58.0924 236.011 57.7744C235.72 57.4564 235.328 57.2059 234.832 57.026C234.341 56.8493 233.719 56.7594 232.975 56.7594C232.431 56.7594 231.905 56.8429 231.392 57.0035C230.878 57.1673 230.422 57.4147 230.017 57.7519C229.613 58.086 229.291 58.51 229.052 59.024C228.812 59.5379 228.69 60.1419 228.69 60.8421V66.1937H226.637V58.0571C226.637 57.7744 226.629 57.4114 226.607 56.9649C226.585 56.5184 226.559 56.1169 226.516 55.7603H228.477V55.7539Z" fill="#D2A637"/>
<path d="M258.516 57.0168H254.531V63.104C254.531 63.4895 254.579 63.8107 254.683 64.0613C254.788 64.3118 254.931 64.511 255.123 64.6523C255.314 64.7937 255.54 64.89 255.801 64.9414C256.062 64.9928 256.345 65.0185 256.645 65.0185C256.928 65.0185 257.224 64.9896 257.537 64.9286C257.85 64.8675 258.146 64.7872 258.429 64.6812L258.52 65.9982C258.159 66.101 257.78 66.1813 257.389 66.2327C256.998 66.2841 256.567 66.3098 256.106 66.3098C255.723 66.3098 255.323 66.2745 254.897 66.1974C254.475 66.1235 254.083 65.9822 253.718 65.7734C253.357 65.5646 253.057 65.2819 252.826 64.9253C252.596 64.5688 252.478 64.0998 252.478 63.5216V57.0104H249.551V55.7383H252.478V52.7959H254.531V55.7383H258.516V57.0168Z" fill="#D2A637"/>
<path d="M22.3993 80.0012C21.6555 79.423 20.7682 78.9733 19.7416 78.6521C18.7151 78.3341 17.5363 78.1734 16.2097 78.1734C14.883 78.1734 13.6085 78.3598 12.5124 78.7292C11.4162 79.1018 10.4854 79.6029 9.71983 80.2325C8.95428 80.8621 8.36706 81.5945 7.95384 82.4265C7.54061 83.2584 7.33617 84.1322 7.33617 85.0541C7.33617 85.976 7.54061 86.8497 7.95384 87.6817C8.36706 88.5137 8.95428 89.2396 9.71983 89.8628C10.4854 90.486 11.4162 90.9839 12.5124 91.3533C13.6085 91.7259 14.8395 91.909 16.2097 91.909C17.4189 91.909 18.5237 91.8127 19.5285 91.6199C20.5377 91.4272 21.3511 91.1798 21.9731 90.8843V86.0916H16.9926V84.6654H24.1479V91.7966C22.9822 92.317 21.7208 92.7057 20.3724 92.9594C19.0239 93.2132 17.6233 93.3385 16.1749 93.3385C14.5655 93.3385 13.0735 93.1297 11.7077 92.7153C10.3375 92.2977 9.16307 91.7227 8.17567 90.9871C7.18828 90.2515 6.41838 89.3778 5.86596 88.3691C5.31354 87.3605 5.03516 86.2523 5.03516 85.0477C5.03516 83.8431 5.31789 82.7348 5.87901 81.7262C6.44013 80.7175 7.22308 79.8438 8.21917 79.1082C9.21526 78.3726 10.394 77.7976 11.7512 77.38C13.1083 76.9624 14.5829 76.7568 16.1749 76.7568C17.8843 76.7568 19.3763 76.9464 20.642 77.3222C21.9078 77.698 22.9953 78.2248 23.9044 78.8962L22.395 80.0108V80.0012H22.3993Z" fill="#D2A637"/>
<path d="M37.5288 83.7027C37.5071 83.2562 37.481 82.8546 37.4375 82.4981H39.3992C39.4384 82.7807 39.4688 83.0923 39.4906 83.436C39.5123 83.7765 39.521 84.0592 39.521 84.2841H39.5819C39.9864 83.6737 40.5867 83.1791 41.3914 82.8C42.1961 82.421 43.1009 82.2314 44.11 82.2314C44.371 82.2314 44.6102 82.2379 44.819 82.2539C45.0278 82.27 45.2453 82.2989 45.4671 82.3439L45.1975 83.7926C45.0757 83.7637 44.8756 83.7348 44.5928 83.7027C44.3101 83.6738 44.0274 83.6577 43.749 83.6577C43.2053 83.6577 42.6833 83.7316 42.1787 83.8793C41.6742 84.0271 41.2392 84.2616 40.8651 84.5796C40.491 84.8976 40.1909 85.3056 39.9604 85.8035C39.7298 86.3014 39.6124 86.8956 39.6124 87.5927V92.9314H37.5593V84.7948C37.5593 84.5121 37.5506 84.1492 37.5288 83.7027Z" fill="#D2A637"/>
<path d="M69.8874 87.7184C69.8874 88.5054 69.7004 89.2346 69.3306 89.9027C68.9609 90.5709 68.4389 91.1523 67.7734 91.6405C67.1079 92.1288 66.3119 92.5143 65.3898 92.7873C64.4633 93.0636 63.4498 93.1985 62.3406 93.1985C61.2314 93.1985 60.2484 93.0603 59.3219 92.7873C58.3954 92.5143 57.5994 92.1288 56.9382 91.6405C56.277 91.1523 55.7551 90.5709 55.381 89.9027C55.0069 89.2346 54.8242 88.5054 54.8242 87.7184C54.8242 86.9314 55.0113 86.2022 55.381 85.534C55.7551 84.8659 56.2727 84.2845 56.9382 83.7962C57.6037 83.308 58.3997 82.9225 59.3219 82.6494C60.244 82.3764 61.2531 82.2383 62.3406 82.2383C63.428 82.2383 64.4633 82.3764 65.3898 82.6494C66.3163 82.9225 67.1123 83.308 67.7734 83.7962C68.4346 84.2845 68.9566 84.8659 69.3306 85.534C69.7047 86.2022 69.8874 86.9314 69.8874 87.7184ZM67.7125 87.7184C67.7125 87.137 67.5864 86.5909 67.3341 86.0801C67.0818 85.5694 66.7251 85.1229 66.2641 84.7438C65.803 84.3648 65.2375 84.0628 64.572 83.8412C63.9065 83.6195 63.1627 83.5071 62.3362 83.5071C61.5098 83.5071 60.7703 83.6195 60.1179 83.8412C59.4654 84.066 58.9043 84.3648 58.4432 84.7438C57.9821 85.1229 57.6255 85.5694 57.3732 86.0801C57.1209 86.5941 56.9947 87.1402 56.9947 87.7184C56.9947 88.2966 57.1209 88.8427 57.3732 89.3566C57.6255 89.8674 57.9821 90.3139 58.4432 90.6929C58.9043 91.072 59.4654 91.3707 60.1179 91.5859C60.7703 91.8011 61.5098 91.9104 62.3362 91.9104C63.1627 91.9104 63.9065 91.8044 64.572 91.5859C65.2375 91.3707 65.7986 91.0752 66.2641 90.6929C66.7251 90.3139 67.0818 89.8674 67.3341 89.3566C67.5864 88.8427 67.7125 88.2966 67.7125 87.7184Z" fill="#D2A637"/>
<path d="M92.543 92.9379C92.5039 92.6552 92.4734 92.3436 92.4517 91.9999C92.4299 91.6594 92.4212 91.3767 92.4212 91.1518H92.3603C91.9558 91.7622 91.3033 92.2569 90.3986 92.6359C89.4938 93.015 88.5369 93.2045 87.5321 93.2045C85.74 93.2045 84.3959 92.8126 83.5042 92.0224C82.6082 91.2354 82.1602 90.1946 82.1602 88.9001V82.5013H84.2132V88.2769C84.2132 88.8262 84.2741 89.3241 84.3959 89.7706C84.5177 90.2171 84.7222 90.5993 85.0136 90.9173C85.305 91.2386 85.6965 91.4859 86.1924 91.6658C86.6839 91.8425 87.3059 91.9324 88.0497 91.9324C88.5934 91.9324 89.1198 91.8521 89.633 91.6883C90.1463 91.5245 90.603 91.2771 91.0075 90.9398C91.4121 90.6058 91.7296 90.1817 91.9732 89.6678C92.2124 89.157 92.3342 88.5499 92.3342 87.8497V82.498H94.3873V90.6347C94.3873 90.9173 94.396 91.2803 94.4177 91.7268C94.4395 92.1733 94.4699 92.5749 94.5091 92.9314H92.5474V92.9379H92.543Z" fill="#D2A637"/>
<path d="M109.838 98.2899H107.785V82.5049H109.838V84.3102H109.93C110.512 83.626 111.291 83.1088 112.27 82.7619C113.244 82.4117 114.236 82.2383 115.245 82.2383C116.35 82.2383 117.355 82.3796 118.251 82.6623C119.147 82.945 119.912 83.3304 120.543 83.8219C121.178 84.3134 121.67 84.8916 122.022 85.5597C122.374 86.2279 122.548 86.9506 122.548 87.7216C122.548 88.4925 122.374 89.2153 122.022 89.8834C121.67 90.5516 121.178 91.133 120.543 91.6213C119.908 92.1127 119.142 92.4982 118.251 92.7809C117.355 93.0636 116.354 93.2049 115.245 93.2049C114.236 93.2049 113.248 93.0314 112.27 92.6813C111.291 92.3312 110.512 91.8301 109.93 91.178H109.838V98.2899ZM120.373 87.7184C120.373 87.137 120.252 86.5909 120.012 86.0801C119.769 85.5694 119.425 85.1229 118.968 84.7438C118.516 84.3648 117.959 84.0628 117.294 83.8412C116.628 83.6195 115.876 83.5071 115.032 83.5071C114.245 83.5071 113.522 83.6163 112.857 83.8316C112.191 84.0468 111.617 84.3455 111.134 84.7246C110.652 85.1036 110.273 85.5501 110.004 86.0609C109.734 86.5748 109.595 87.1273 109.595 87.7216C109.595 88.3158 109.729 88.8684 110.004 89.3823C110.278 89.8931 110.652 90.3364 111.134 90.709C111.617 91.0816 112.191 91.3739 112.857 91.5891C113.522 91.8044 114.245 91.9136 115.032 91.9136C115.876 91.9136 116.633 91.8076 117.294 91.5891C117.959 91.3739 118.516 91.0784 118.968 90.6961C119.421 90.3171 119.769 89.8706 120.012 89.3598C120.252 88.8459 120.373 88.2998 120.373 87.7216V87.7184Z" fill="#D2A637"/>
<path d="M258.53 85.6211H135.023V88.737H258.53V85.6211Z" fill="#D2A637"/>
</svg>
