<svg width="22" height="20" viewBox="0 0 22 20" fill="none" xmlns="http://www.w3.org/2000/svg">
<path d="M10.7927 9.86137C9.82759 9.86137 9.00136 9.5395 8.31405 8.89577C7.62674 8.25204 7.28309 7.4782 7.28309 6.57424C7.28309 5.67028 7.62674 4.89643 8.31405 4.2527C9.00136 3.60897 9.82759 3.28711 10.7927 3.28711C11.7579 3.28711 12.5841 3.60897 13.2714 4.2527C13.9587 4.89643 14.3024 5.67028 14.3024 6.57424C14.3024 7.4782 13.9587 8.25204 13.2714 8.89577C12.5841 9.5395 11.7579 9.86137 10.7927 9.86137ZM3.77344 16.4356V14.1346C3.77344 13.669 3.90139 13.2409 4.15731 12.8506C4.41322 12.4603 4.75322 12.1624 5.1773 11.9569C6.08396 11.5323 7.00524 11.2139 7.94115 11.0016C8.87706 10.7893 9.82759 10.6831 10.7927 10.6831C11.7579 10.6831 12.7084 10.7893 13.6443 11.0016C14.5802 11.2139 15.5015 11.5323 16.4082 11.9569C16.8323 12.1624 17.1723 12.4603 17.4282 12.8506C17.6841 13.2409 17.812 13.669 17.812 14.1346V16.4356H3.77344ZM5.52826 14.7921H16.0572V14.1346C16.0572 13.984 16.017 13.847 15.9366 13.7237C15.8561 13.6005 15.7501 13.5046 15.6185 13.4361C14.8288 13.0663 14.0319 12.789 13.2276 12.6041C12.4233 12.4192 11.6117 12.3267 10.7927 12.3267C9.97382 12.3267 9.16222 12.4192 8.35792 12.6041C7.55363 12.789 6.75664 13.0663 5.96697 13.4361C5.83536 13.5046 5.72934 13.6005 5.64891 13.7237C5.56848 13.847 5.52826 13.984 5.52826 14.1346V14.7921ZM10.7927 8.2178C11.2753 8.2178 11.6884 8.05687 12.0321 7.73501C12.3757 7.41314 12.5476 7.02622 12.5476 6.57424C12.5476 6.12226 12.3757 5.73534 12.0321 5.41347C11.6884 5.09161 11.2753 4.93067 10.7927 4.93067C10.3102 4.93067 9.89705 5.09161 9.5534 5.41347C9.20974 5.73534 9.03792 6.12226 9.03792 6.57424C9.03792 7.02622 9.20974 7.41314 9.5534 7.73501C9.89705 8.05687 10.3102 8.2178 10.7927 8.2178Z" fill="black"/>
</svg>
