<svg width="42" height="50" viewBox="0 0 42 50" fill="none" xmlns="http://www.w3.org/2000/svg">
<path d="M25.6654 1.66699H6.9987C5.76102 1.66699 4.57404 2.15866 3.69887 3.03383C2.8237 3.909 2.33203 5.09598 2.33203 6.33366V43.667C2.33203 44.9047 2.8237 46.0917 3.69887 46.9668C4.57404 47.842 5.76102 48.3337 6.9987 48.3337H34.9987C36.2364 48.3337 37.4234 47.842 38.2985 46.9668C39.1737 46.0917 39.6654 44.9047 39.6654 43.667V15.667M25.6654 1.66699L39.6654 15.667M25.6654 1.66699V15.667H39.6654M30.332 27.3337H11.6654M30.332 36.667H11.6654M16.332 18.0003H11.6654" stroke="#D2A637" stroke-width="3" stroke-linecap="round" stroke-linejoin="round"/>
</svg>
