<svg width="16" height="16" viewBox="0 0 16 16" fill="none" xmlns="http://www.w3.org/2000/svg">
<path d="M10.0317 3.33366C10.6828 3.4607 11.2813 3.77916 11.7504 4.24828C12.2195 4.7174 12.538 5.31584 12.665 5.96699M10.0317 0.666992C11.3845 0.817283 12.6461 1.42311 13.6092 2.385C14.5723 3.34689 15.1797 4.60767 15.3317 5.96032M14.665 11.2803V13.2803C14.6657 13.466 14.6277 13.6498 14.5533 13.8199C14.479 13.99 14.3699 14.1427 14.233 14.2682C14.0962 14.3938 13.9347 14.4893 13.7588 14.5488C13.5829 14.6083 13.3966 14.6304 13.2117 14.6137C11.1602 14.3908 9.18966 13.6898 7.45833 12.567C5.84755 11.5434 4.48189 10.1778 3.45833 8.56699C2.33165 6.82779 1.63049 4.84765 1.41166 2.78699C1.395 2.60264 1.41691 2.41683 1.47599 2.24141C1.53508 2.06598 1.63004 1.90478 1.75484 1.76807C1.87964 1.63136 2.03153 1.52213 2.20086 1.44734C2.37018 1.37255 2.55322 1.33383 2.73833 1.33366H4.73833C5.06187 1.33047 5.37552 1.44504 5.62084 1.65601C5.86615 1.86698 6.02638 2.15996 6.07166 2.48033C6.15608 3.12037 6.31263 3.74881 6.53833 4.35366C6.62802 4.59227 6.64744 4.8516 6.59427 5.10091C6.54109 5.35022 6.41757 5.57907 6.23833 5.76033L5.39166 6.60699C6.3407 8.27602 7.72263 9.65795 9.39166 10.607L10.2383 9.76033C10.4196 9.58108 10.6484 9.45756 10.8977 9.40439C11.1471 9.35122 11.4064 9.37063 11.645 9.46032C12.2498 9.68602 12.8783 9.84258 13.5183 9.92699C13.8422 9.97268 14.1379 10.1358 14.3494 10.3853C14.5608 10.6348 14.6731 10.9534 14.665 11.2803Z" stroke="black" stroke-width="1.2" stroke-linecap="round" stroke-linejoin="round"/>
</svg>
